# xmcd
#
# Track frame offsets:
#	150
#	25015
#	54852
#	72397
#	86192
#	92737
#	120337
#	137502
#	156310
#	167972
#	188065
#
# Disc length: 3082 seconds
#
# Revision: 2
# Processed by: cddbd v1.4b41PL2 Copyright (c) Steve Scherf et al.
# Submitted via: EZCDDA 4.3.2
#
DISCID=8b0c080b
DTITLE=Flávio Guimarães - On The Loose
DYEAR=1900
DGENRE=
TTITLE0=Keep It Yourself
TTITLE1=Berimbau Não É Gaita
TTITLE2=You Was Young
TTITLE3=Checkin' On My Baby
TTITLE4=On The Loose
TTITLE5=Baby What You Want Me To Do
TTITLE6=Boogie Pro Rafa
TTITLE7=Jam For Big Walter
TTITLE8=Blowin' The Family's Jewels
TTITLE9=Rock With Me
TTITLE10=Tributo a William Clarke
EXTD=
EXTT0=
EXTT1=
EXTT2=
EXTT3=
EXTT4=
EXTT5=
EXTT6=
EXTT7=
EXTT8=
EXTT9=
EXTT10=
PLAYORDER=
